<svg width="16" height="16" viewBox="0 0 16 16" fill="none" xmlns="http://www.w3.org/2000/svg">
<path d="M15.5312 11.3125L12.0312 9.8125C11.9375 9.78125 11.8125 9.75 11.7188 9.75C11.5312 9.75 11.2812 9.875 11.1562 10.0312L9.59375 11.9375C7.53125 10.9375 5.03125 8.46875 4.0625 6.40625L5.96875 4.84375C6.125 4.71875 6.25 4.46875 6.25 4.25C6.25 4.1875 6.21875 4.0625 6.1875 3.96875L4.6875 0.46875C4.5625 0.21875 4.25 0.03125 3.96875 0.03125C3.9375 0.03125 3.875 0.03125 3.8125 0.03125L0.5625 0.78125C0.25 0.84375 0 1.1875 0 1.5C0 9.53125 6.46875 16 14.5 16C14.8125 16 15.1562 15.75 15.2188 15.4375L15.9688 12.1875C15.9688 12.125 15.9688 12.0625 15.9688 12.0312C15.9688 11.75 15.7812 11.4375 15.5312 11.3125Z" fill="#666666"/>
</svg>
