<svg width="70" height="70" viewBox="0 0 70 70" fill="none" xmlns="http://www.w3.org/2000/svg">
<circle cx="35" cy="35" r="35" fill="#13C57B"/>
<rect x="21" y="22" width="26" height="26" fill="white"/>
<path d="M52.7812 12H16.2188C13.8896 12 12 14.1596 12 16.8214V52.1786C12 54.8404 13.8896 57 16.2188 57H52.7812C55.1104 57 57 54.8404 57 52.1786V16.8214C57 14.1596 55.1104 12 52.7812 12ZM45.4336 41.1797C45.8555 41.6618 45.8555 42.4453 45.4336 42.9275L41.874 46.9955C41.4521 47.4777 40.7666 47.4777 40.3447 46.9955L34.5 40.2556L28.6553 46.9955C28.2334 47.4777 27.5479 47.4777 27.126 46.9955L23.5664 42.9275C23.1445 42.4453 23.1445 41.6618 23.5664 41.1797L29.4639 34.5L23.5664 27.8203C23.1445 27.3382 23.1445 26.5547 23.5664 26.0725L27.126 22.0045C27.5479 21.5223 28.2334 21.5223 28.6553 22.0045L34.5 28.7444L40.3447 22.0045C40.7666 21.5223 41.4521 21.5223 41.874 22.0045L45.4336 26.0725C45.8555 26.5547 45.8555 27.3382 45.4336 27.8203L39.5361 34.5L45.4336 41.1797Z" fill="#13C57B"/>
</svg>
