<svg width="25" height="24" viewBox="0 0 25 24" fill="none" xmlns="http://www.w3.org/2000/svg">
<path d="M20 15H15.5C14.6562 15 14 14.3438 14 13.5C14 12.7031 14.6562 12 15.5 12H20C20 12 24.5 6.98438 24.5 4.5C24.5 2.01562 22.4844 0 20 0C17.5156 0 15.5 2.01562 15.5 4.5C15.5 5.71875 16.5312 7.5 17.6094 9H15.5C13.0156 9 11 11.0625 11 13.5C11 15.9844 13.0156 18 15.5 18H20C20.7969 18 21.5 18.7031 21.5 19.5C21.5 20.3438 20.7969 21 20 21H9.17188C8.42188 22.1719 7.57812 23.25 6.96875 24H20C22.4375 24 24.5 21.9844 24.5 19.5C24.5 17.0625 22.4375 15 20 15ZM20 3C20.7969 3 21.5 3.70312 21.5 4.5C21.5 5.34375 20.7969 6 20 6C19.1562 6 18.5 5.34375 18.5 4.5C18.5 3.70312 19.1562 3 20 3ZM5 12C2.51562 12 0.5 14.0156 0.5 16.5C0.5 18.9844 5 24 5 24C5 24 9.5 18.9844 9.5 16.5C9.5 14.0156 7.48438 12 5 12ZM5 18C4.15625 18 3.5 17.3438 3.5 16.5C3.5 15.7031 4.15625 15 5 15C5.79688 15 6.5 15.7031 6.5 16.5C6.5 17.3438 5.79688 18 5 18Z" fill="white"/>
</svg>
