<svg width="105" height="105" viewBox="0 0 105 105" fill="none" xmlns="http://www.w3.org/2000/svg">
<path d="M82.1484 40.4297L76.1719 22.6172C75.4688 20.3906 73.3594 18.75 70.8984 18.75H54.375V41.25H82.2656C82.2656 41.0156 82.2656 40.6641 82.1484 40.4297ZM50.625 18.75H33.9844C31.5234 18.75 29.4141 20.3906 28.7109 22.6172L22.7344 40.4297C22.6172 40.6641 22.6172 41.0156 22.6172 41.25H50.625V18.75ZM22.5 45V73.125C22.5 76.2891 24.9609 78.75 28.125 78.75H76.875C79.9219 78.75 82.5 76.2891 82.5 73.125V45H22.5Z" fill="white"/>
<path d="M57.6608 52.6479H46.5263L44.1871 10H60L57.6608 52.6479ZM44 67.5791C44 64.8372 44.7797 62.9298 46.3392 61.8569C47.8986 60.7244 49.8012 60.1582 52.0468 60.1582C54.23 60.1582 56.1014 60.7244 57.6608 61.8569C59.2203 62.9298 60 64.8372 60 67.5791C60 70.2017 59.2203 72.1091 57.6608 73.3012C56.1014 74.4337 54.23 75 52.0468 75C49.8012 75 47.8986 74.4337 46.3392 73.3012C44.7797 72.1091 44 70.2017 44 67.5791Z" fill="#FF0000"/>
<circle r="49" transform="matrix(-1 0 0 1 52.5 52.5)" stroke="#FF0000" stroke-width="7"/>
</svg>
