<svg width="70" height="70" viewBox="0 0 70 70" fill="none" xmlns="http://www.w3.org/2000/svg">
<circle cx="35" cy="35" r="35" fill="#13C57B"/>
<path d="M24.7857 29.375H45.2143C45.6482 29.375 46 29.0392 46 28.625V26.75C46 26.3358 45.6482 26 45.2143 26H24.7857C24.3518 26 24 26.3358 24 26.75V28.625C24 29.0392 24.3518 29.375 24.7857 29.375ZM24.7857 36.875H45.2143C45.6482 36.875 46 36.5392 46 36.125V34.25C46 33.8358 45.6482 33.5 45.2143 33.5H24.7857C24.3518 33.5 24 33.8358 24 34.25V36.125C24 36.5392 24.3518 36.875 24.7857 36.875ZM24.7857 44.375H45.2143C45.6482 44.375 46 44.0392 46 43.625V41.75C46 41.3358 45.6482 41 45.2143 41H24.7857C24.3518 41 24 41.3358 24 41.75V43.625C24 44.0392 24.3518 44.375 24.7857 44.375Z" fill="white"/>
</svg>
