<svg width="24" height="24" viewBox="0 0 24 24" fill="none" xmlns="http://www.w3.org/2000/svg">
<path d="M23.625 12.0508C23.5781 5.62897 18.375 0.425842 12 0.425842C8.85938 0.425842 6.04688 1.69147 3.9375 3.66022L1.64062 1.36334C1.17188 0.894592 0.375 1.22272 0.375 1.87897V8.67584C0.375 9.09772 0.703125 9.42584 1.125 9.42584H7.92188C8.57812 9.42584 8.90625 8.62897 8.4375 8.16022L6.04688 5.76959C7.59375 4.31647 9.70312 3.42584 12 3.42584C16.7344 3.42584 20.625 7.31647 20.625 12.0508C20.625 16.8321 16.7344 20.6758 12 20.6758C9.9375 20.6758 8.10938 20.0196 6.60938 18.8477C6.1875 18.4727 5.53125 18.5196 5.10938 18.9415L4.59375 19.4571C4.125 19.9258 4.17188 20.7227 4.6875 21.1446C6.65625 22.7383 9.23438 23.7227 12 23.6758C18.375 23.6758 23.625 18.4727 23.625 12.0508ZM15.1406 15.754L15.5625 15.1446C15.9844 14.6758 15.8906 13.9727 15.375 13.5977L13.5 12.0977V7.17584C13.5 6.56647 12.9844 6.05084 12.375 6.05084H11.625C10.9688 6.05084 10.5 6.56647 10.5 7.17584V13.5508L13.5469 15.9415C14.0156 16.3165 14.7188 16.2227 15.1406 15.754Z" fill="white"/>
</svg>
