<svg width="11" height="8" viewBox="0 0 11 8" fill="none" xmlns="http://www.w3.org/2000/svg">
<path d="M4.5 7L0.25 2.75C0.104167 2.60417 0.03125 2.42708 0.03125 2.21875C0.03125 2.01042 0.104167 1.83333 0.25 1.6875L0.96875 1C1.11458 0.854167 1.29167 0.78125 1.5 0.78125C1.70833 0.78125 1.88542 0.854167 2.03125 1L5.03125 4L8.03125 1C8.17708 0.854167 8.35417 0.78125 8.5625 0.78125C8.77083 0.78125 8.94792 0.854167 9.09375 1L9.8125 1.6875C9.95833 1.83333 10.0312 2.01042 10.0312 2.21875C10.0312 2.42708 9.95833 2.60417 9.8125 2.75L5.5625 7C5.41667 7.14583 5.23958 7.21875 5.03125 7.21875C4.82292 7.21875 4.64583 7.14583 4.5 7Z" fill="#666666"/>
</svg>
