<svg width="87" height="90" viewBox="0 0 87 90" fill="none" xmlns="http://www.w3.org/2000/svg">
<path d="M77.6 22.2C82.5 22.2 86.5 18.2 86.5 13.3C86.5 8.4 82.5 4.4 77.6 4.4C72.7 4.4 68.7 8.4 68.7 13.3C68.7 14.7 69 16 69.6 17.1L55.6 30.3C53.7 29 51.4 28.2 48.9 28.2C47.8 28.2 46.8 28.4 45.9 28.6L32.7 14.2C33.9 12.7 34.6 10.8 34.6 8.8C34.6 4 30.7 0 25.8 0C21 0 17 3.9 17 8.8C17 13.6 20.9 17.6 25.8 17.6C26.9 17.6 27.9 17.4 28.8 17.1L41.5 31.1C38.9 33.2 37.3 36.5 37.3 40.1C37.3 40.4 37.3 40.7 37.3 41L18.7 46.5C16.9 43.6 13.7 41.6 10.1 41.6C4.5 41.6 0 46.1 0 51.7C0 57.3 4.5 61.8 10.1 61.8C15.7 61.8 20.2 57.3 20.2 51.7C20.2 51.5 20.2 51.3 20.2 51.1L38.8 45.6C39.8 47.5 41.4 49.1 43.2 50.2L36.1 71.7C36 71.7 35.9 71.7 35.8 71.7C31 71.7 27 75.6 27 80.5C27 85.3 30.9 89.3 35.8 89.3C40.6 89.3 44.6 85.4 44.6 80.5C44.6 77.5 43.1 74.8 40.7 73.2L47.8 51.7C48.2 51.7 48.7 51.8 49.1 51.8C52 51.8 54.7 50.7 56.7 49L68.1 57.8C67.8 58.7 67.6 59.6 67.6 60.6C67.6 65.1 71.2 68.7 75.7 68.7C80.2 68.7 83.8 65.1 83.8 60.6C83.8 56.1 80.2 52.5 75.7 52.5C74 52.5 72.3 53.1 71 54L59.6 45.2C60.3 43.7 60.8 42 60.8 40.1C60.8 37.9 60.2 35.8 59.1 34L73 20.9C74.2 21.7 75.9 22.2 77.6 22.2Z" fill="white"/>
</svg>
