<svg width="88" height="88" viewBox="0 0 88 88" fill="none" xmlns="http://www.w3.org/2000/svg">
<circle cx="44" cy="44" r="44" fill="white"/>
<path d="M49 36.2812V29.0625C49 27.9234 50.1193 27 51.5 27C52.8807 27 54 27.9234 54 29.0625V36.2812H49ZM57.75 37.3125H30.25C29.5596 37.3125 29 37.7742 29 38.3438V40.4062C29 40.9758 29.5596 41.4375 30.25 41.4375H31.5V43.5C31.5 48.4891 35.7945 52.6505 41.5 53.606V60H46.5V53.606C52.2055 52.6505 56.5 48.4891 56.5 43.5V41.4375H57.75C58.4404 41.4375 59 40.9758 59 40.4062V38.3438C59 37.7742 58.4404 37.3125 57.75 37.3125ZM39 36.2812V29.0625C39 27.9234 37.8807 27 36.5 27C35.1193 27 34 27.9234 34 29.0625V36.2812H39Z" fill="#666666"/>
</svg>
