<svg width="14" height="15" viewBox="0 0 14 15" fill="none" xmlns="http://www.w3.org/2000/svg">
<path d="M13 6.47458H8.5V1.97458C8.5 1.44333 8.03125 0.974579 7.5 0.974579H6.5C5.9375 0.974579 5.5 1.44333 5.5 1.97458V6.47458H1C0.4375 6.47458 0 6.94333 0 7.47458V8.47458C0 9.03708 0.4375 9.47458 1 9.47458H5.5V13.9746C5.5 14.5371 5.9375 14.9746 6.5 14.9746H7.5C8.03125 14.9746 8.5 14.5371 8.5 13.9746V9.47458H13C13.5312 9.47458 14 9.03708 14 8.47458V7.47458C14 6.94333 13.5312 6.47458 13 6.47458Z" fill="#666666"/>
</svg>
