<svg width="19" height="16" viewBox="0 0 19 16" fill="none" xmlns="http://www.w3.org/2000/svg">
<path d="M18.7812 13.7812L11.2812 0.75C10.7188 -0.21875 9.25 -0.25 8.6875 0.75L1.1875 13.7812C0.625 14.75 1.34375 16 2.5 16H17.4688C18.625 16 19.3438 14.7812 18.7812 13.7812ZM10 11.0625C10.7812 11.0625 11.4375 11.7188 11.4375 12.5C11.4375 13.3125 10.7812 13.9375 10 13.9375C9.1875 13.9375 8.5625 13.3125 8.5625 12.5C8.5625 11.7188 9.1875 11.0625 10 11.0625ZM8.625 5.90625C8.59375 5.6875 8.78125 5.5 9 5.5H10.9688C11.1875 5.5 11.375 5.6875 11.3438 5.90625L11.125 10.1562C11.0938 10.375 10.9375 10.5 10.75 10.5H9.21875C9.03125 10.5 8.875 10.375 8.84375 10.1562L8.625 5.90625Z" fill="#F94D4D"/>
</svg>
